<svg width="32" height="32" viewBox="0 0 32 32" fill="none" xmlns="http://www.w3.org/2000/svg">
<g clip-path="url(#clip0_1_210)">
<path d="M3.90005 18.9L18.9 3.9C21.4 1.3 25.5 1.3 28.1 3.8C30.7 6.3 30.7 10.5 28.1 13L28 13.1L25.2 16L23.8 14.6L26.7 11.7C28.4 10 28.4 7.1 26.7 5.4C25 3.7 22.1 3.6 20.4 5.3C20.4 5.3 20.4 5.3 20.3 5.4L5.40005 20.3C3.60005 22 3.60005 24.9 5.30005 26.6C7.00005 28.4 9.90005 28.4 11.6 26.7C11.6 26.7 11.6 26.7 11.7001 26.6L19.1 19.2C20.1 18.2 20 16.6 19.1 15.7C18.1 14.8 16.6 14.8 15.6 15.7L11.5 19.8L10.1 18.4L14.3 14.2C16.1 12.5 18.9 12.6 20.6 14.4C22.2 16.1 22.2 18.8 20.6 20.6L13.1 28.1C10.6 30.7 6.50005 30.7 3.90005 28.2C1.30005 25.7 1.30005 21.5 3.90005 18.9C3.90005 19 3.90005 18.9 3.90005 18.9Z" fill="#BBBBBB"/>
</g>
<defs>
<clipPath id="clip0_1_210">
<rect width="32" height="32" fill="white" transform="matrix(-1 0 0 1 32 0)"/>
</clipPath>
</defs>
</svg>
