<svg width="32" height="32" viewBox="0 0 32 32" fill="none" xmlns="http://www.w3.org/2000/svg">
<g clip-path="url(#clip0_1_206)">
<path d="M23 14V17C23 18.8565 22.2625 20.637 20.9497 21.9497C19.637 23.2625 17.8565 24 16 24C14.1435 24 12.363 23.2625 11.0503 21.9497C9.7375 20.637 9 18.8565 9 17V14H7V17C7.00105 19.2131 7.81745 21.3482 9.29322 22.9973C10.769 24.6465 12.8006 25.6941 15 25.94V28H11V30H21V28H17V25.94C19.1994 25.6941 21.231 24.6465 22.7068 22.9973C24.1825 21.3482 24.9989 19.2131 25 17V14H23Z" fill="#BBBBBB"/>
<path d="M16 22C17.3261 22 18.5979 21.4732 19.5355 20.5355C20.4732 19.5979 21 18.3261 21 17V7C21 5.67392 20.4732 4.40215 19.5355 3.46447C18.5979 2.52678 17.3261 2 16 2C14.6739 2 13.4021 2.52678 12.4645 3.46447C11.5268 4.40215 11 5.67392 11 7V17C11 18.3261 11.5268 19.5979 12.4645 20.5355C13.4021 21.4732 14.6739 22 16 22ZM13 7C13 6.20435 13.3161 5.44129 13.8787 4.87868C14.4413 4.31607 15.2044 4 16 4C16.7956 4 17.5587 4.31607 18.1213 4.87868C18.6839 5.44129 19 6.20435 19 7V17C19 17.7956 18.6839 18.5587 18.1213 19.1213C17.5587 19.6839 16.7956 20 16 20C15.2044 20 14.4413 19.6839 13.8787 19.1213C13.3161 18.5587 13 17.7956 13 17V7Z" fill="#BBBBBB"/>
</g>
<defs>
<clipPath id="clip0_1_206">
<rect width="32" height="32" fill="white"/>
</clipPath>
</defs>
</svg>
